<mxfile host="app.diagrams.net" modified="2023-10-06T16:33:12.692Z" agent="Mozilla/5.0 (Windows NT 10.0; Win64; x64) AppleWebKit/537.36 (KHTML, like Gecko) Chrome/117.0.0.0 Safari/537.36" etag="Hi3RMHI8DgjmjbUEqdM3" version="22.0.3" type="device">
  <diagram id="C5RBs43oDa-KdzZeNtuy" name="Page-1">
    <mxGraphModel dx="677" dy="1506" grid="1" gridSize="10" guides="1" tooltips="1" connect="1" arrows="1" fold="1" page="1" pageScale="1" pageWidth="827" pageHeight="1169" math="0" shadow="0">
      <root>
        <mxCell id="WIyWlLk6GJQsqaUBKTNV-0" />
        <mxCell id="WIyWlLk6GJQsqaUBKTNV-1" parent="WIyWlLk6GJQsqaUBKTNV-0" />
        <mxCell id="jY4zGkFi8qz9rZQvmphH-1" style="edgeStyle=orthogonalEdgeStyle;rounded=0;orthogonalLoop=1;jettySize=auto;html=1;" parent="WIyWlLk6GJQsqaUBKTNV-1" source="jY4zGkFi8qz9rZQvmphH-0" edge="1">
          <mxGeometry relative="1" as="geometry">
            <mxPoint x="425" y="-1000" as="targetPoint" />
          </mxGeometry>
        </mxCell>
        <mxCell id="jY4zGkFi8qz9rZQvmphH-0" value="inicio" style="ellipse;whiteSpace=wrap;html=1;" parent="WIyWlLk6GJQsqaUBKTNV-1" vertex="1">
          <mxGeometry x="300" y="-1130" width="250" height="80" as="geometry" />
        </mxCell>
        <mxCell id="jY4zGkFi8qz9rZQvmphH-6" style="edgeStyle=orthogonalEdgeStyle;rounded=0;orthogonalLoop=1;jettySize=auto;html=1;" parent="WIyWlLk6GJQsqaUBKTNV-1" source="jY4zGkFi8qz9rZQvmphH-2" target="jY4zGkFi8qz9rZQvmphH-5" edge="1">
          <mxGeometry relative="1" as="geometry" />
        </mxCell>
        <mxCell id="jY4zGkFi8qz9rZQvmphH-2" value="&lt;div style=&quot;color: rgb(204, 204, 204); background-color: rgb(31, 31, 31); font-family: Consolas, &amp;quot;Courier New&amp;quot;, monospace; font-size: 14px; line-height: 19px;&quot;&gt;nomealuno&lt;/div&gt;" style="html=1;strokeWidth=2;shape=manualInput;whiteSpace=wrap;rounded=1;size=26;arcSize=11;" parent="WIyWlLk6GJQsqaUBKTNV-1" vertex="1">
          <mxGeometry x="285" y="-900" width="275" height="80" as="geometry" />
        </mxCell>
        <mxCell id="jY4zGkFi8qz9rZQvmphH-3" value="&lt;div style=&quot;color: rgb(204, 204, 204); background-color: rgb(31, 31, 31); font-family: Consolas, &amp;quot;Courier New&amp;quot;, monospace; font-size: 14px; line-height: 19px;&quot;&gt;digite o nome do aluno&lt;/div&gt;" style="strokeWidth=2;html=1;shape=mxgraph.flowchart.display;whiteSpace=wrap;" parent="WIyWlLk6GJQsqaUBKTNV-1" vertex="1">
          <mxGeometry x="285" y="-1000" width="265" height="40" as="geometry" />
        </mxCell>
        <mxCell id="jY4zGkFi8qz9rZQvmphH-4" style="edgeStyle=orthogonalEdgeStyle;rounded=0;orthogonalLoop=1;jettySize=auto;html=1;entryX=0.494;entryY=0.15;entryDx=0;entryDy=0;entryPerimeter=0;" parent="WIyWlLk6GJQsqaUBKTNV-1" source="jY4zGkFi8qz9rZQvmphH-3" target="jY4zGkFi8qz9rZQvmphH-2" edge="1">
          <mxGeometry relative="1" as="geometry" />
        </mxCell>
        <mxCell id="jY4zGkFi8qz9rZQvmphH-8" style="edgeStyle=orthogonalEdgeStyle;rounded=0;orthogonalLoop=1;jettySize=auto;html=1;" parent="WIyWlLk6GJQsqaUBKTNV-1" source="jY4zGkFi8qz9rZQvmphH-5" target="jY4zGkFi8qz9rZQvmphH-7" edge="1">
          <mxGeometry relative="1" as="geometry" />
        </mxCell>
        <mxCell id="jY4zGkFi8qz9rZQvmphH-5" value="&lt;div style=&quot;color: rgb(204, 204, 204); background-color: rgb(31, 31, 31); font-family: Consolas, &amp;quot;Courier New&amp;quot;, monospace; font-size: 14px; line-height: 19px;&quot;&gt;&lt;div style=&quot;line-height: 19px;&quot;&gt;digite a primeira nota&lt;/div&gt;&lt;/div&gt;" style="strokeWidth=2;html=1;shape=mxgraph.flowchart.display;whiteSpace=wrap;" parent="WIyWlLk6GJQsqaUBKTNV-1" vertex="1">
          <mxGeometry x="281" y="-770" width="265" height="60" as="geometry" />
        </mxCell>
        <mxCell id="jY4zGkFi8qz9rZQvmphH-7" value="&lt;div style=&quot;color: rgb(204, 204, 204); background-color: rgb(31, 31, 31); font-family: Consolas, &amp;quot;Courier New&amp;quot;, monospace; font-size: 14px; line-height: 19px;&quot;&gt;&lt;div style=&quot;line-height: 19px;&quot;&gt;n1&lt;/div&gt;&lt;/div&gt;" style="html=1;strokeWidth=2;shape=manualInput;whiteSpace=wrap;rounded=1;size=26;arcSize=11;" parent="WIyWlLk6GJQsqaUBKTNV-1" vertex="1">
          <mxGeometry x="320" y="-680" width="195" height="54" as="geometry" />
        </mxCell>
        <mxCell id="jY4zGkFi8qz9rZQvmphH-9" value="&lt;div style=&quot;color: rgb(204, 204, 204); background-color: rgb(31, 31, 31); font-family: Consolas, &amp;quot;Courier New&amp;quot;, monospace; font-size: 14px; line-height: 19px;&quot;&gt;&lt;div style=&quot;line-height: 19px;&quot;&gt;digite a segunda nota&lt;/div&gt;&lt;/div&gt;" style="strokeWidth=2;html=1;shape=mxgraph.flowchart.display;whiteSpace=wrap;" parent="WIyWlLk6GJQsqaUBKTNV-1" vertex="1">
          <mxGeometry x="281" y="-590" width="265" height="60" as="geometry" />
        </mxCell>
        <mxCell id="jY4zGkFi8qz9rZQvmphH-10" style="edgeStyle=orthogonalEdgeStyle;rounded=0;orthogonalLoop=1;jettySize=auto;html=1;entryX=0.479;entryY=-0.05;entryDx=0;entryDy=0;entryPerimeter=0;" parent="WIyWlLk6GJQsqaUBKTNV-1" source="jY4zGkFi8qz9rZQvmphH-7" target="jY4zGkFi8qz9rZQvmphH-9" edge="1">
          <mxGeometry relative="1" as="geometry" />
        </mxCell>
        <mxCell id="jY4zGkFi8qz9rZQvmphH-14" style="edgeStyle=orthogonalEdgeStyle;rounded=0;orthogonalLoop=1;jettySize=auto;html=1;" parent="WIyWlLk6GJQsqaUBKTNV-1" source="jY4zGkFi8qz9rZQvmphH-11" target="jY4zGkFi8qz9rZQvmphH-13" edge="1">
          <mxGeometry relative="1" as="geometry" />
        </mxCell>
        <mxCell id="jY4zGkFi8qz9rZQvmphH-11" value="&lt;div style=&quot;color: rgb(204, 204, 204); background-color: rgb(31, 31, 31); font-family: Consolas, &amp;quot;Courier New&amp;quot;, monospace; font-size: 14px; line-height: 19px;&quot;&gt;&lt;div style=&quot;line-height: 19px;&quot;&gt;&lt;div style=&quot;line-height: 19px;&quot;&gt;n2&lt;/div&gt;&lt;/div&gt;&lt;/div&gt;" style="html=1;strokeWidth=2;shape=manualInput;whiteSpace=wrap;rounded=1;size=26;arcSize=11;" parent="WIyWlLk6GJQsqaUBKTNV-1" vertex="1">
          <mxGeometry x="313" y="-510" width="219" height="50" as="geometry" />
        </mxCell>
        <mxCell id="jY4zGkFi8qz9rZQvmphH-12" style="edgeStyle=orthogonalEdgeStyle;rounded=0;orthogonalLoop=1;jettySize=auto;html=1;entryX=0.513;entryY=0.163;entryDx=0;entryDy=0;entryPerimeter=0;" parent="WIyWlLk6GJQsqaUBKTNV-1" source="jY4zGkFi8qz9rZQvmphH-9" target="jY4zGkFi8qz9rZQvmphH-11" edge="1">
          <mxGeometry relative="1" as="geometry" />
        </mxCell>
        <mxCell id="jY4zGkFi8qz9rZQvmphH-16" style="edgeStyle=orthogonalEdgeStyle;rounded=0;orthogonalLoop=1;jettySize=auto;html=1;entryX=0.5;entryY=0;entryDx=0;entryDy=0;" parent="WIyWlLk6GJQsqaUBKTNV-1" source="jY4zGkFi8qz9rZQvmphH-13" target="jY4zGkFi8qz9rZQvmphH-15" edge="1">
          <mxGeometry relative="1" as="geometry" />
        </mxCell>
        <mxCell id="jY4zGkFi8qz9rZQvmphH-13" value="&lt;div style=&quot;color: rgb(204, 204, 204); background-color: rgb(31, 31, 31); font-family: Consolas, &amp;quot;Courier New&amp;quot;, monospace; font-size: 14px; line-height: 19px;&quot;&gt;&lt;div style=&quot;line-height: 19px;&quot;&gt;digite a terceira nota&lt;/div&gt;&lt;/div&gt;" style="strokeWidth=2;html=1;shape=mxgraph.flowchart.display;whiteSpace=wrap;" parent="WIyWlLk6GJQsqaUBKTNV-1" vertex="1">
          <mxGeometry x="290" y="-420" width="265" height="60" as="geometry" />
        </mxCell>
        <mxCell id="jY4zGkFi8qz9rZQvmphH-15" value="&lt;div style=&quot;color: rgb(204, 204, 204); background-color: rgb(31, 31, 31); font-family: Consolas, &amp;quot;Courier New&amp;quot;, monospace; font-size: 14px; line-height: 19px;&quot;&gt;&lt;div style=&quot;line-height: 19px;&quot;&gt;&lt;div style=&quot;line-height: 19px;&quot;&gt;&lt;div style=&quot;line-height: 19px;&quot;&gt;n3&lt;/div&gt;&lt;/div&gt;&lt;/div&gt;&lt;/div&gt;" style="html=1;strokeWidth=2;shape=manualInput;whiteSpace=wrap;rounded=1;size=26;arcSize=11;" parent="WIyWlLk6GJQsqaUBKTNV-1" vertex="1">
          <mxGeometry x="285" y="-330" width="275" height="80" as="geometry" />
        </mxCell>
        <mxCell id="jY4zGkFi8qz9rZQvmphH-17" value="&lt;div style=&quot;color: rgb(204, 204, 204); background-color: rgb(31, 31, 31); font-family: Consolas, &amp;quot;Courier New&amp;quot;, monospace; font-size: 14px; line-height: 19px;&quot;&gt;let&lt;span style=&quot;color: #d4d4d4;&quot;&gt; &lt;/span&gt;&lt;span style=&quot;color: #9cdcfe;&quot;&gt;media&lt;/span&gt;&lt;span style=&quot;color: #d4d4d4;&quot;&gt; = ( &lt;/span&gt;&lt;span style=&quot;color: #9cdcfe;&quot;&gt;n1&lt;/span&gt;&lt;span style=&quot;color: #d4d4d4;&quot;&gt;+&lt;/span&gt;&lt;span style=&quot;color: #9cdcfe;&quot;&gt;n2&lt;/span&gt;&lt;span style=&quot;color: #d4d4d4;&quot;&gt;+&lt;/span&gt;&lt;span style=&quot;color: #9cdcfe;&quot;&gt;n3&lt;/span&gt;&lt;span style=&quot;color: #d4d4d4;&quot;&gt;)/&lt;/span&gt;&lt;span style=&quot;color: #b5cea8;&quot;&gt;3&lt;/span&gt;&lt;span style=&quot;color: #d4d4d4;&quot;&gt;;&lt;/span&gt;&lt;/div&gt;" style="rounded=1;whiteSpace=wrap;html=1;absoluteArcSize=1;arcSize=14;strokeWidth=2;" parent="WIyWlLk6GJQsqaUBKTNV-1" vertex="1">
          <mxGeometry x="281" y="-200" width="308.75" height="80" as="geometry" />
        </mxCell>
        <mxCell id="jY4zGkFi8qz9rZQvmphH-18" style="edgeStyle=orthogonalEdgeStyle;rounded=0;orthogonalLoop=1;jettySize=auto;html=1;entryX=0.405;entryY=-0.01;entryDx=0;entryDy=0;entryPerimeter=0;" parent="WIyWlLk6GJQsqaUBKTNV-1" source="jY4zGkFi8qz9rZQvmphH-15" target="jY4zGkFi8qz9rZQvmphH-17" edge="1">
          <mxGeometry relative="1" as="geometry" />
        </mxCell>
        <mxCell id="hLk7x86AVOuMxj4CrfuD-2" style="edgeStyle=orthogonalEdgeStyle;rounded=0;orthogonalLoop=1;jettySize=auto;html=1;entryX=0;entryY=0.75;entryDx=0;entryDy=0;" edge="1" parent="WIyWlLk6GJQsqaUBKTNV-1" source="jY4zGkFi8qz9rZQvmphH-21" target="hLk7x86AVOuMxj4CrfuD-1">
          <mxGeometry relative="1" as="geometry" />
        </mxCell>
        <mxCell id="jY4zGkFi8qz9rZQvmphH-21" value="&lt;div style=&quot;color: rgb(204, 204, 204); background-color: rgb(31, 31, 31); font-family: Consolas, &amp;quot;Courier New&amp;quot;, monospace; font-size: 14px; line-height: 19px;&quot;&gt;media&amp;gt;=6&lt;/div&gt;" style="rhombus;whiteSpace=wrap;html=1;" parent="WIyWlLk6GJQsqaUBKTNV-1" vertex="1">
          <mxGeometry x="343.38" y="-70" width="184" height="220" as="geometry" />
        </mxCell>
        <mxCell id="hLk7x86AVOuMxj4CrfuD-0" style="edgeStyle=orthogonalEdgeStyle;rounded=0;orthogonalLoop=1;jettySize=auto;html=1;entryX=0.548;entryY=0.05;entryDx=0;entryDy=0;entryPerimeter=0;" edge="1" parent="WIyWlLk6GJQsqaUBKTNV-1" source="jY4zGkFi8qz9rZQvmphH-17" target="jY4zGkFi8qz9rZQvmphH-21">
          <mxGeometry relative="1" as="geometry" />
        </mxCell>
        <mxCell id="hLk7x86AVOuMxj4CrfuD-8" style="edgeStyle=orthogonalEdgeStyle;rounded=0;orthogonalLoop=1;jettySize=auto;html=1;" edge="1" parent="WIyWlLk6GJQsqaUBKTNV-1" source="hLk7x86AVOuMxj4CrfuD-1" target="hLk7x86AVOuMxj4CrfuD-5">
          <mxGeometry relative="1" as="geometry">
            <mxPoint x="700" y="430" as="targetPoint" />
            <Array as="points">
              <mxPoint x="737" y="365" />
              <mxPoint x="710" y="365" />
              <mxPoint x="710" y="420" />
              <mxPoint x="700" y="420" />
              <mxPoint x="700" y="423" />
            </Array>
          </mxGeometry>
        </mxCell>
        <mxCell id="hLk7x86AVOuMxj4CrfuD-1" value="situação:&quot;reprovado&quot;" style="rounded=1;whiteSpace=wrap;html=1;absoluteArcSize=1;arcSize=14;strokeWidth=2;" vertex="1" parent="WIyWlLk6GJQsqaUBKTNV-1">
          <mxGeometry x="647" y="230" width="180" height="70" as="geometry" />
        </mxCell>
        <mxCell id="hLk7x86AVOuMxj4CrfuD-9" style="edgeStyle=orthogonalEdgeStyle;rounded=0;orthogonalLoop=1;jettySize=auto;html=1;entryX=0.5;entryY=0;entryDx=0;entryDy=0;" edge="1" parent="WIyWlLk6GJQsqaUBKTNV-1" source="hLk7x86AVOuMxj4CrfuD-3" target="hLk7x86AVOuMxj4CrfuD-5">
          <mxGeometry relative="1" as="geometry" />
        </mxCell>
        <mxCell id="hLk7x86AVOuMxj4CrfuD-3" value="situação:&quot;aprovado&quot;" style="rounded=1;whiteSpace=wrap;html=1;absoluteArcSize=1;arcSize=14;strokeWidth=2;" vertex="1" parent="WIyWlLk6GJQsqaUBKTNV-1">
          <mxGeometry x="345.38" y="240" width="180" height="70" as="geometry" />
        </mxCell>
        <mxCell id="hLk7x86AVOuMxj4CrfuD-4" style="edgeStyle=orthogonalEdgeStyle;rounded=0;orthogonalLoop=1;jettySize=auto;html=1;entryX=0.787;entryY=-0.021;entryDx=0;entryDy=0;entryPerimeter=0;" edge="1" parent="WIyWlLk6GJQsqaUBKTNV-1" source="jY4zGkFi8qz9rZQvmphH-21" target="hLk7x86AVOuMxj4CrfuD-3">
          <mxGeometry relative="1" as="geometry" />
        </mxCell>
        <mxCell id="hLk7x86AVOuMxj4CrfuD-5" value="" style="ellipse;whiteSpace=wrap;html=1;aspect=fixed;" vertex="1" parent="WIyWlLk6GJQsqaUBKTNV-1">
          <mxGeometry x="414" y="400" width="46" height="46" as="geometry" />
        </mxCell>
        <mxCell id="hLk7x86AVOuMxj4CrfuD-14" style="edgeStyle=orthogonalEdgeStyle;rounded=0;orthogonalLoop=1;jettySize=auto;html=1;entryX=0;entryY=0.75;entryDx=0;entryDy=0;" edge="1" parent="WIyWlLk6GJQsqaUBKTNV-1" source="hLk7x86AVOuMxj4CrfuD-10" target="hLk7x86AVOuMxj4CrfuD-13">
          <mxGeometry relative="1" as="geometry" />
        </mxCell>
        <mxCell id="hLk7x86AVOuMxj4CrfuD-10" value="n1&amp;gt;=n2 &amp;amp;&amp;amp; n1&amp;gt;n3" style="strokeWidth=2;html=1;shape=mxgraph.flowchart.decision;whiteSpace=wrap;" vertex="1" parent="WIyWlLk6GJQsqaUBKTNV-1">
          <mxGeometry x="425" y="510" width="115" height="110" as="geometry" />
        </mxCell>
        <mxCell id="hLk7x86AVOuMxj4CrfuD-12" style="edgeStyle=orthogonalEdgeStyle;rounded=0;orthogonalLoop=1;jettySize=auto;html=1;entryX=0.25;entryY=0.2;entryDx=0;entryDy=0;entryPerimeter=0;" edge="1" parent="WIyWlLk6GJQsqaUBKTNV-1" source="hLk7x86AVOuMxj4CrfuD-5" target="hLk7x86AVOuMxj4CrfuD-10">
          <mxGeometry relative="1" as="geometry" />
        </mxCell>
        <mxCell id="hLk7x86AVOuMxj4CrfuD-26" style="edgeStyle=orthogonalEdgeStyle;rounded=0;orthogonalLoop=1;jettySize=auto;html=1;" edge="1" parent="WIyWlLk6GJQsqaUBKTNV-1" source="hLk7x86AVOuMxj4CrfuD-13" target="hLk7x86AVOuMxj4CrfuD-23">
          <mxGeometry relative="1" as="geometry">
            <mxPoint x="940" y="1011.6666666666666" as="targetPoint" />
            <Array as="points">
              <mxPoint x="941" y="565" />
              <mxPoint x="941" y="1012" />
            </Array>
          </mxGeometry>
        </mxCell>
        <mxCell id="hLk7x86AVOuMxj4CrfuD-13" value="ma=n1" style="rounded=1;whiteSpace=wrap;html=1;absoluteArcSize=1;arcSize=14;strokeWidth=2;" vertex="1" parent="WIyWlLk6GJQsqaUBKTNV-1">
          <mxGeometry x="650" y="530" width="180" height="70" as="geometry" />
        </mxCell>
        <mxCell id="hLk7x86AVOuMxj4CrfuD-16" value="n2&amp;gt;n3" style="strokeWidth=2;html=1;shape=mxgraph.flowchart.decision;whiteSpace=wrap;" vertex="1" parent="WIyWlLk6GJQsqaUBKTNV-1">
          <mxGeometry x="425" y="680" width="115" height="110" as="geometry" />
        </mxCell>
        <mxCell id="hLk7x86AVOuMxj4CrfuD-24" style="edgeStyle=orthogonalEdgeStyle;rounded=0;orthogonalLoop=1;jettySize=auto;html=1;entryX=0;entryY=0.5;entryDx=0;entryDy=0;" edge="1" parent="WIyWlLk6GJQsqaUBKTNV-1" source="hLk7x86AVOuMxj4CrfuD-17" target="hLk7x86AVOuMxj4CrfuD-23">
          <mxGeometry relative="1" as="geometry">
            <mxPoint x="480" y="1030" as="targetPoint" />
            <Array as="points">
              <mxPoint x="483" y="980" />
              <mxPoint x="450" y="980" />
              <mxPoint x="450" y="1030" />
              <mxPoint x="520" y="1030" />
              <mxPoint x="520" y="1005" />
            </Array>
          </mxGeometry>
        </mxCell>
        <mxCell id="hLk7x86AVOuMxj4CrfuD-17" value="&lt;div&gt;&amp;nbsp;mb= n2;&lt;/div&gt;&lt;div&gt;&amp;nbsp; &amp;nbsp;mc=n3&lt;/div&gt;" style="rounded=1;whiteSpace=wrap;html=1;absoluteArcSize=1;arcSize=14;strokeWidth=2;" vertex="1" parent="WIyWlLk6GJQsqaUBKTNV-1">
          <mxGeometry x="392.5" y="860" width="180" height="70" as="geometry" />
        </mxCell>
        <mxCell id="hLk7x86AVOuMxj4CrfuD-19" style="edgeStyle=orthogonalEdgeStyle;rounded=0;orthogonalLoop=1;jettySize=auto;html=1;entryX=0.585;entryY=0.002;entryDx=0;entryDy=0;entryPerimeter=0;" edge="1" parent="WIyWlLk6GJQsqaUBKTNV-1" source="hLk7x86AVOuMxj4CrfuD-16" target="hLk7x86AVOuMxj4CrfuD-17">
          <mxGeometry relative="1" as="geometry" />
        </mxCell>
        <mxCell id="hLk7x86AVOuMxj4CrfuD-20" value="&lt;div&gt;&amp;nbsp;mb=n3&lt;/div&gt;&lt;div&gt;&amp;nbsp; mc=n2&lt;/div&gt;" style="rounded=1;whiteSpace=wrap;html=1;absoluteArcSize=1;arcSize=14;strokeWidth=2;" vertex="1" parent="WIyWlLk6GJQsqaUBKTNV-1">
          <mxGeometry x="670" y="700" width="180" height="70" as="geometry" />
        </mxCell>
        <mxCell id="hLk7x86AVOuMxj4CrfuD-21" style="edgeStyle=orthogonalEdgeStyle;rounded=0;orthogonalLoop=1;jettySize=auto;html=1;entryX=0.016;entryY=0.669;entryDx=0;entryDy=0;entryPerimeter=0;" edge="1" parent="WIyWlLk6GJQsqaUBKTNV-1" source="hLk7x86AVOuMxj4CrfuD-16" target="hLk7x86AVOuMxj4CrfuD-20">
          <mxGeometry relative="1" as="geometry" />
        </mxCell>
        <mxCell id="hLk7x86AVOuMxj4CrfuD-22" style="edgeStyle=orthogonalEdgeStyle;rounded=0;orthogonalLoop=1;jettySize=auto;html=1;entryX=0.568;entryY=0.085;entryDx=0;entryDy=0;entryPerimeter=0;" edge="1" parent="WIyWlLk6GJQsqaUBKTNV-1" source="hLk7x86AVOuMxj4CrfuD-10" target="hLk7x86AVOuMxj4CrfuD-16">
          <mxGeometry relative="1" as="geometry" />
        </mxCell>
        <mxCell id="hLk7x86AVOuMxj4CrfuD-23" value="" style="ellipse;whiteSpace=wrap;html=1;aspect=fixed;" vertex="1" parent="WIyWlLk6GJQsqaUBKTNV-1">
          <mxGeometry x="589.75" y="980" width="50" height="50" as="geometry" />
        </mxCell>
        <mxCell id="hLk7x86AVOuMxj4CrfuD-27" style="edgeStyle=orthogonalEdgeStyle;rounded=0;orthogonalLoop=1;jettySize=auto;html=1;entryX=0.845;entryY=0.053;entryDx=0;entryDy=0;entryPerimeter=0;" edge="1" parent="WIyWlLk6GJQsqaUBKTNV-1" source="hLk7x86AVOuMxj4CrfuD-20" target="hLk7x86AVOuMxj4CrfuD-23">
          <mxGeometry relative="1" as="geometry" />
        </mxCell>
        <mxCell id="hLk7x86AVOuMxj4CrfuD-28" value="n2&amp;gt;=n1 &amp;amp;&amp;amp; n2&amp;gt;n3" style="strokeWidth=2;html=1;shape=mxgraph.flowchart.decision;whiteSpace=wrap;" vertex="1" parent="WIyWlLk6GJQsqaUBKTNV-1">
          <mxGeometry x="557.25" y="1130" width="115" height="110" as="geometry" />
        </mxCell>
        <mxCell id="hLk7x86AVOuMxj4CrfuD-29" style="edgeStyle=orthogonalEdgeStyle;rounded=0;orthogonalLoop=1;jettySize=auto;html=1;entryX=0.628;entryY=0.1;entryDx=0;entryDy=0;entryPerimeter=0;" edge="1" parent="WIyWlLk6GJQsqaUBKTNV-1" source="hLk7x86AVOuMxj4CrfuD-23" target="hLk7x86AVOuMxj4CrfuD-28">
          <mxGeometry relative="1" as="geometry" />
        </mxCell>
        <mxCell id="hLk7x86AVOuMxj4CrfuD-30" value="ma=n2" style="rounded=1;whiteSpace=wrap;html=1;absoluteArcSize=1;arcSize=14;strokeWidth=2;" vertex="1" parent="WIyWlLk6GJQsqaUBKTNV-1">
          <mxGeometry x="532" y="1300" width="125.25" height="50" as="geometry" />
        </mxCell>
        <mxCell id="hLk7x86AVOuMxj4CrfuD-31" style="edgeStyle=orthogonalEdgeStyle;rounded=0;orthogonalLoop=1;jettySize=auto;html=1;entryX=0.685;entryY=0.053;entryDx=0;entryDy=0;entryPerimeter=0;" edge="1" parent="WIyWlLk6GJQsqaUBKTNV-1" source="hLk7x86AVOuMxj4CrfuD-28" target="hLk7x86AVOuMxj4CrfuD-30">
          <mxGeometry relative="1" as="geometry" />
        </mxCell>
        <mxCell id="hLk7x86AVOuMxj4CrfuD-32" value="&amp;nbsp;if(n1&amp;gt;n3)" style="strokeWidth=2;html=1;shape=mxgraph.flowchart.decision;whiteSpace=wrap;" vertex="1" parent="WIyWlLk6GJQsqaUBKTNV-1">
          <mxGeometry x="552.25" y="1480" width="115" height="110" as="geometry" />
        </mxCell>
        <mxCell id="hLk7x86AVOuMxj4CrfuD-33" value="" style="ellipse;whiteSpace=wrap;html=1;aspect=fixed;" vertex="1" parent="WIyWlLk6GJQsqaUBKTNV-1">
          <mxGeometry x="589.75" y="1380" width="40" height="40" as="geometry" />
        </mxCell>
        <mxCell id="hLk7x86AVOuMxj4CrfuD-34" style="edgeStyle=orthogonalEdgeStyle;rounded=0;orthogonalLoop=1;jettySize=auto;html=1;entryX=0.806;entryY=0.025;entryDx=0;entryDy=0;entryPerimeter=0;" edge="1" parent="WIyWlLk6GJQsqaUBKTNV-1" source="hLk7x86AVOuMxj4CrfuD-30" target="hLk7x86AVOuMxj4CrfuD-33">
          <mxGeometry relative="1" as="geometry" />
        </mxCell>
        <mxCell id="hLk7x86AVOuMxj4CrfuD-35" style="edgeStyle=orthogonalEdgeStyle;rounded=0;orthogonalLoop=1;jettySize=auto;html=1;entryX=0.664;entryY=0.115;entryDx=0;entryDy=0;entryPerimeter=0;" edge="1" parent="WIyWlLk6GJQsqaUBKTNV-1" source="hLk7x86AVOuMxj4CrfuD-33" target="hLk7x86AVOuMxj4CrfuD-32">
          <mxGeometry relative="1" as="geometry" />
        </mxCell>
        <mxCell id="hLk7x86AVOuMxj4CrfuD-43" style="edgeStyle=orthogonalEdgeStyle;rounded=0;orthogonalLoop=1;jettySize=auto;html=1;entryX=-0.054;entryY=0.671;entryDx=0;entryDy=0;entryPerimeter=0;" edge="1" parent="WIyWlLk6GJQsqaUBKTNV-1" source="hLk7x86AVOuMxj4CrfuD-37" target="hLk7x86AVOuMxj4CrfuD-42">
          <mxGeometry relative="1" as="geometry">
            <mxPoint x="620" y="1840" as="targetPoint" />
            <Array as="points">
              <mxPoint x="605" y="1780" />
              <mxPoint x="601" y="1780" />
              <mxPoint x="601" y="1840" />
              <mxPoint x="648" y="1840" />
            </Array>
          </mxGeometry>
        </mxCell>
        <mxCell id="hLk7x86AVOuMxj4CrfuD-37" value="&lt;div&gt;mb = n1;&lt;/div&gt;&lt;div&gt;&amp;nbsp;mc = n3;&lt;/div&gt;" style="rounded=1;whiteSpace=wrap;html=1;absoluteArcSize=1;arcSize=14;strokeWidth=2;" vertex="1" parent="WIyWlLk6GJQsqaUBKTNV-1">
          <mxGeometry x="542" y="1670" width="125.25" height="50" as="geometry" />
        </mxCell>
        <mxCell id="hLk7x86AVOuMxj4CrfuD-39" style="edgeStyle=orthogonalEdgeStyle;rounded=0;orthogonalLoop=1;jettySize=auto;html=1;entryX=0.673;entryY=0.02;entryDx=0;entryDy=0;entryPerimeter=0;" edge="1" parent="WIyWlLk6GJQsqaUBKTNV-1" source="hLk7x86AVOuMxj4CrfuD-32" target="hLk7x86AVOuMxj4CrfuD-37">
          <mxGeometry relative="1" as="geometry" />
        </mxCell>
        <mxCell id="hLk7x86AVOuMxj4CrfuD-44" style="edgeStyle=orthogonalEdgeStyle;rounded=0;orthogonalLoop=1;jettySize=auto;html=1;entryX=1.008;entryY=0.379;entryDx=0;entryDy=0;entryPerimeter=0;" edge="1" parent="WIyWlLk6GJQsqaUBKTNV-1" source="hLk7x86AVOuMxj4CrfuD-40" target="hLk7x86AVOuMxj4CrfuD-42">
          <mxGeometry relative="1" as="geometry">
            <mxPoint x="883" y="1830" as="targetPoint" />
            <Array as="points">
              <mxPoint x="883" y="1690" />
              <mxPoint x="884" y="1690" />
              <mxPoint x="884" y="1830" />
              <mxPoint x="690" y="1830" />
            </Array>
          </mxGeometry>
        </mxCell>
        <mxCell id="hLk7x86AVOuMxj4CrfuD-40" value="&lt;div&gt;&amp;nbsp;mb = n3;&lt;/div&gt;&lt;div&gt;mc = n1&lt;/div&gt;" style="rounded=1;whiteSpace=wrap;html=1;absoluteArcSize=1;arcSize=14;strokeWidth=2;" vertex="1" parent="WIyWlLk6GJQsqaUBKTNV-1">
          <mxGeometry x="820" y="1510" width="125.25" height="50" as="geometry" />
        </mxCell>
        <mxCell id="hLk7x86AVOuMxj4CrfuD-41" style="edgeStyle=orthogonalEdgeStyle;rounded=0;orthogonalLoop=1;jettySize=auto;html=1;entryX=0.023;entryY=0.87;entryDx=0;entryDy=0;entryPerimeter=0;" edge="1" parent="WIyWlLk6GJQsqaUBKTNV-1" source="hLk7x86AVOuMxj4CrfuD-32" target="hLk7x86AVOuMxj4CrfuD-40">
          <mxGeometry relative="1" as="geometry" />
        </mxCell>
        <mxCell id="hLk7x86AVOuMxj4CrfuD-42" value="" style="ellipse;whiteSpace=wrap;html=1;aspect=fixed;" vertex="1" parent="WIyWlLk6GJQsqaUBKTNV-1">
          <mxGeometry x="650" y="1810" width="40" height="40" as="geometry" />
        </mxCell>
        <mxCell id="hLk7x86AVOuMxj4CrfuD-46" value="(n3 &amp;gt;= n1 &amp;amp;&amp;amp; n3 &amp;gt; n2)" style="strokeWidth=2;html=1;shape=mxgraph.flowchart.decision;whiteSpace=wrap;" vertex="1" parent="WIyWlLk6GJQsqaUBKTNV-1">
          <mxGeometry x="600" y="1930" width="120" height="100" as="geometry" />
        </mxCell>
        <mxCell id="hLk7x86AVOuMxj4CrfuD-47" style="edgeStyle=orthogonalEdgeStyle;rounded=0;orthogonalLoop=1;jettySize=auto;html=1;entryX=0.595;entryY=0.068;entryDx=0;entryDy=0;entryPerimeter=0;" edge="1" parent="WIyWlLk6GJQsqaUBKTNV-1" source="hLk7x86AVOuMxj4CrfuD-42" target="hLk7x86AVOuMxj4CrfuD-46">
          <mxGeometry relative="1" as="geometry" />
        </mxCell>
        <mxCell id="hLk7x86AVOuMxj4CrfuD-48" value="ma=n3" style="rounded=1;whiteSpace=wrap;html=1;absoluteArcSize=1;arcSize=14;strokeWidth=2;" vertex="1" parent="WIyWlLk6GJQsqaUBKTNV-1">
          <mxGeometry x="607.38" y="2080" width="125.25" height="50" as="geometry" />
        </mxCell>
        <mxCell id="hLk7x86AVOuMxj4CrfuD-49" style="edgeStyle=orthogonalEdgeStyle;rounded=0;orthogonalLoop=1;jettySize=auto;html=1;entryX=0.669;entryY=0.02;entryDx=0;entryDy=0;entryPerimeter=0;" edge="1" parent="WIyWlLk6GJQsqaUBKTNV-1" source="hLk7x86AVOuMxj4CrfuD-46" target="hLk7x86AVOuMxj4CrfuD-48">
          <mxGeometry relative="1" as="geometry" />
        </mxCell>
        <mxCell id="hLk7x86AVOuMxj4CrfuD-50" value="" style="ellipse;whiteSpace=wrap;html=1;aspect=fixed;" vertex="1" parent="WIyWlLk6GJQsqaUBKTNV-1">
          <mxGeometry x="657.25" y="2190" width="40" height="40" as="geometry" />
        </mxCell>
        <mxCell id="hLk7x86AVOuMxj4CrfuD-51" style="edgeStyle=orthogonalEdgeStyle;rounded=0;orthogonalLoop=1;jettySize=auto;html=1;entryX=0.785;entryY=-0.017;entryDx=0;entryDy=0;entryPerimeter=0;" edge="1" parent="WIyWlLk6GJQsqaUBKTNV-1" source="hLk7x86AVOuMxj4CrfuD-48" target="hLk7x86AVOuMxj4CrfuD-50">
          <mxGeometry relative="1" as="geometry" />
        </mxCell>
        <mxCell id="hLk7x86AVOuMxj4CrfuD-52" value="(n2&amp;gt;n1" style="strokeWidth=2;html=1;shape=mxgraph.flowchart.decision;whiteSpace=wrap;" vertex="1" parent="WIyWlLk6GJQsqaUBKTNV-1">
          <mxGeometry x="617.25" y="2290" width="120" height="100" as="geometry" />
        </mxCell>
        <mxCell id="hLk7x86AVOuMxj4CrfuD-54" style="edgeStyle=orthogonalEdgeStyle;rounded=0;orthogonalLoop=1;jettySize=auto;html=1;entryX=0.672;entryY=0.118;entryDx=0;entryDy=0;entryPerimeter=0;" edge="1" parent="WIyWlLk6GJQsqaUBKTNV-1" source="hLk7x86AVOuMxj4CrfuD-50" target="hLk7x86AVOuMxj4CrfuD-52">
          <mxGeometry relative="1" as="geometry" />
        </mxCell>
        <mxCell id="hLk7x86AVOuMxj4CrfuD-60" style="edgeStyle=orthogonalEdgeStyle;rounded=0;orthogonalLoop=1;jettySize=auto;html=1;entryX=-0.031;entryY=0.784;entryDx=0;entryDy=0;entryPerimeter=0;" edge="1" parent="WIyWlLk6GJQsqaUBKTNV-1" source="hLk7x86AVOuMxj4CrfuD-55" target="hLk7x86AVOuMxj4CrfuD-59">
          <mxGeometry relative="1" as="geometry">
            <mxPoint x="677.2449999999999" y="2600" as="targetPoint" />
            <Array as="points">
              <mxPoint x="650" y="2590" />
              <mxPoint x="729" y="2590" />
            </Array>
          </mxGeometry>
        </mxCell>
        <mxCell id="hLk7x86AVOuMxj4CrfuD-55" value="&lt;div&gt;&amp;nbsp;mb = n2;&lt;/div&gt;&lt;div&gt;&amp;nbsp; mc = n1;&lt;/div&gt;" style="rounded=1;whiteSpace=wrap;html=1;absoluteArcSize=1;arcSize=14;strokeWidth=2;" vertex="1" parent="WIyWlLk6GJQsqaUBKTNV-1">
          <mxGeometry x="614.62" y="2450" width="125.25" height="50" as="geometry" />
        </mxCell>
        <mxCell id="hLk7x86AVOuMxj4CrfuD-56" style="edgeStyle=orthogonalEdgeStyle;rounded=0;orthogonalLoop=1;jettySize=auto;html=1;entryX=0.691;entryY=-0.047;entryDx=0;entryDy=0;entryPerimeter=0;" edge="1" parent="WIyWlLk6GJQsqaUBKTNV-1" source="hLk7x86AVOuMxj4CrfuD-52" target="hLk7x86AVOuMxj4CrfuD-55">
          <mxGeometry relative="1" as="geometry" />
        </mxCell>
        <mxCell id="hLk7x86AVOuMxj4CrfuD-61" style="edgeStyle=orthogonalEdgeStyle;rounded=0;orthogonalLoop=1;jettySize=auto;html=1;entryX=1.002;entryY=0.706;entryDx=0;entryDy=0;entryPerimeter=0;" edge="1" parent="WIyWlLk6GJQsqaUBKTNV-1" source="hLk7x86AVOuMxj4CrfuD-57" target="hLk7x86AVOuMxj4CrfuD-59">
          <mxGeometry relative="1" as="geometry">
            <mxPoint x="922.625" y="2591.6666666666665" as="targetPoint" />
            <Array as="points">
              <mxPoint x="950" y="2592" />
              <mxPoint x="773" y="2592" />
            </Array>
          </mxGeometry>
        </mxCell>
        <mxCell id="hLk7x86AVOuMxj4CrfuD-57" value="&lt;div&gt;&amp;nbsp;mb = n1;&lt;/div&gt;&lt;div&gt;&amp;nbsp; mc = n2;&lt;/div&gt;" style="rounded=1;whiteSpace=wrap;html=1;absoluteArcSize=1;arcSize=14;strokeWidth=2;" vertex="1" parent="WIyWlLk6GJQsqaUBKTNV-1">
          <mxGeometry x="860" y="2315" width="125.25" height="50" as="geometry" />
        </mxCell>
        <mxCell id="hLk7x86AVOuMxj4CrfuD-58" style="edgeStyle=orthogonalEdgeStyle;rounded=0;orthogonalLoop=1;jettySize=auto;html=1;entryX=0.023;entryY=0.887;entryDx=0;entryDy=0;entryPerimeter=0;" edge="1" parent="WIyWlLk6GJQsqaUBKTNV-1" source="hLk7x86AVOuMxj4CrfuD-52" target="hLk7x86AVOuMxj4CrfuD-57">
          <mxGeometry relative="1" as="geometry" />
        </mxCell>
        <mxCell id="hLk7x86AVOuMxj4CrfuD-59" value="" style="ellipse;whiteSpace=wrap;html=1;aspect=fixed;" vertex="1" parent="WIyWlLk6GJQsqaUBKTNV-1">
          <mxGeometry x="730" y="2560" width="42.75" height="42.75" as="geometry" />
        </mxCell>
        <mxCell id="hLk7x86AVOuMxj4CrfuD-70" value="(n1 == n2 &amp;amp;&amp;amp; n1 == n3)" style="strokeWidth=2;html=1;shape=mxgraph.flowchart.decision;whiteSpace=wrap;" vertex="1" parent="WIyWlLk6GJQsqaUBKTNV-1">
          <mxGeometry x="688.62" y="2660" width="141.38" height="100" as="geometry" />
        </mxCell>
        <mxCell id="hLk7x86AVOuMxj4CrfuD-71" style="edgeStyle=orthogonalEdgeStyle;rounded=0;orthogonalLoop=1;jettySize=auto;html=1;entryX=0.655;entryY=0.1;entryDx=0;entryDy=0;entryPerimeter=0;" edge="1" parent="WIyWlLk6GJQsqaUBKTNV-1" source="hLk7x86AVOuMxj4CrfuD-59" target="hLk7x86AVOuMxj4CrfuD-70">
          <mxGeometry relative="1" as="geometry" />
        </mxCell>
        <mxCell id="hLk7x86AVOuMxj4CrfuD-72" value="(n1 == n2 &amp;amp;&amp;amp; n1 == n3)" style="rounded=1;whiteSpace=wrap;html=1;absoluteArcSize=1;arcSize=14;strokeWidth=2;" vertex="1" parent="WIyWlLk6GJQsqaUBKTNV-1">
          <mxGeometry x="696.68" y="2840" width="143.32" height="50" as="geometry" />
        </mxCell>
        <mxCell id="hLk7x86AVOuMxj4CrfuD-73" style="edgeStyle=orthogonalEdgeStyle;rounded=0;orthogonalLoop=1;jettySize=auto;html=1;entryX=0.701;entryY=-0.028;entryDx=0;entryDy=0;entryPerimeter=0;" edge="1" parent="WIyWlLk6GJQsqaUBKTNV-1" source="hLk7x86AVOuMxj4CrfuD-70" target="hLk7x86AVOuMxj4CrfuD-72">
          <mxGeometry relative="1" as="geometry" />
        </mxCell>
        <mxCell id="hLk7x86AVOuMxj4CrfuD-76" style="edgeStyle=orthogonalEdgeStyle;rounded=0;orthogonalLoop=1;jettySize=auto;html=1;" edge="1" parent="WIyWlLk6GJQsqaUBKTNV-1" source="hLk7x86AVOuMxj4CrfuD-74" target="hLk7x86AVOuMxj4CrfuD-75">
          <mxGeometry relative="1" as="geometry" />
        </mxCell>
        <mxCell id="hLk7x86AVOuMxj4CrfuD-74" value="&lt;div style=&quot;color: rgb(204, 204, 204); background-color: rgb(31, 31, 31); font-family: Consolas, &amp;quot;Courier New&amp;quot;, monospace; font-size: 14px; line-height: 19px;&quot;&gt;&lt;div style=&quot;line-height: 19px;&quot;&gt;document.getElementById(&#39;aluno&#39;).innerHTML= aluno;&lt;/div&gt;&lt;div style=&quot;line-height: 19px;&quot;&gt;&amp;nbsp; &amp;nbsp; &amp;nbsp; document.getElementById(&#39;n1&#39;).innerHTML= n1;&lt;/div&gt;&lt;div style=&quot;line-height: 19px;&quot;&gt;&amp;nbsp; &amp;nbsp; &amp;nbsp; document.getElementById(&#39;n2&#39;).innerHTML= n2;&lt;/div&gt;&lt;div style=&quot;line-height: 19px;&quot;&gt;&amp;nbsp; &amp;nbsp; &amp;nbsp; document.getElementById(&#39;n3&#39;).innerHTML= n3;&lt;/div&gt;&lt;div style=&quot;line-height: 19px;&quot;&gt;&amp;nbsp; &amp;nbsp; &amp;nbsp; document.getElementById(&#39;situacao&#39;).innerHTML= situacao;&lt;/div&gt;&lt;div style=&quot;line-height: 19px;&quot;&gt;&amp;nbsp; &amp;nbsp; &amp;nbsp; document.getElementById(&#39;ndecre&#39;).innerHTML=&amp;nbsp; ma +&quot;,&quot; + mb+ &quot;,&quot;+ mc;&lt;/div&gt;&lt;/div&gt;" style="strokeWidth=2;html=1;shape=mxgraph.flowchart.display;whiteSpace=wrap;" vertex="1" parent="WIyWlLk6GJQsqaUBKTNV-1">
          <mxGeometry x="688.62" y="2970" width="451.38" height="260" as="geometry" />
        </mxCell>
        <mxCell id="hLk7x86AVOuMxj4CrfuD-75" value="f" style="ellipse;whiteSpace=wrap;html=1;" vertex="1" parent="WIyWlLk6GJQsqaUBKTNV-1">
          <mxGeometry x="820" y="3290" width="250" height="80" as="geometry" />
        </mxCell>
      </root>
    </mxGraphModel>
  </diagram>
</mxfile>
